<svg width="60" height="60" viewBox="0 0 60 60" fill="none" xmlns="http://www.w3.org/2000/svg">
<path d="M55.459 29.5898L32.8184 6.96093L31.3008 5.44335C30.955 5.09986 30.4874 4.90707 30 4.90707C29.5126 4.90707 29.045 5.09986 28.6992 5.44335L4.54101 29.5898C4.1867 29.9428 3.90669 30.3631 3.71749 30.826C3.5283 31.2889 3.43376 31.7851 3.43945 32.2851C3.46289 34.3476 5.17969 35.9941 7.24219 35.9941H9.73242V55.0781H50.2676V35.9941H52.8105C53.8125 35.9941 54.7559 35.6016 55.4648 34.8926C55.8139 34.5446 56.0905 34.1308 56.2786 33.6752C56.4667 33.2196 56.5625 32.7312 56.5605 32.2383C56.5605 31.2422 56.168 30.2988 55.459 29.5898ZM33.2812 50.8594H26.7187V38.9062H33.2812V50.8594ZM46.0488 31.7754V50.8594H37.0312V37.5C37.0312 36.2051 35.9824 35.1562 34.6875 35.1562H25.3125C24.0176 35.1562 22.9687 36.2051 22.9687 37.5V50.8594H13.9512V31.7754H8.32617L30.0059 10.1133L31.3594 11.4668L51.6797 31.7754H46.0488Z" fill="black"/>
</svg>
