<svg width="92" height="35" fill="none" xmlns="http://www.w3.org/2000/svg"><path fill-rule="evenodd" clip-rule="evenodd" d="M58.022.353a.211.211 0 01.148-.06h33.062a.29.29 0 01.2.081l.022.022.044.043a.208.208 0 01.06.147v29.283a.207.207 0 01-.06.146l-.044.043a.362.362 0 01-.253.104H72.268a.587.587 0 00-.206.052c-.072.03-.159.071-.256.123-.194.102-.44.247-.718.42a58.32 58.32 0 00-1.919 1.261 147.242 147.242 0 00-2.406 1.675l-.038.026-.08.058-.045.032-.043.03-.012.009-.002.002h-.001l.087.119-.087-.119-.001.001h-.001c-.23.171-.499.175-.707.005-.094-.077-.12-.129-.135-.2a1.217 1.217 0 01-.017-.166l-.002-.023-.001-.03a6.875 6.875 0 00-.014-.212c-.035-.411-.05-.633-.074-1.022V32.2l-.075-.952v-.006a2.026 2.026 0 00-.218-.738.854.854 0 00-.186-.237.408.408 0 00-.263-.106h-6.616a.36.36 0 01-.254-.104.351.351 0 01-.105-.25V.586a.21.21 0 01.062-.147l.043-.043.044-.043zm14.394 30.102h18.785a.66.66 0 00.463-.19l.043-.042a.494.494 0 00.149-.354V.586a.495.495 0 00-.15-.354L91.665.19 91.64.167A.581.581 0 0091.232 0H58.17a.51.51 0 00-.358.146L57.77.19l-.044.043a.497.497 0 00-.148.354V29.81c0 .17.069.335.192.456a.66.66 0 00.463.19h6.616c.01 0 .033.004.07.035a.568.568 0 01.119.157c.082.147.152.365.183.627l.073.947c.025.391.04.615.075 1.028.006.076.01.14.013.2l.001.027.002.03c.004.074.01.144.023.21.03.144.098.252.237.366.327.267.747.245 1.073.005v-.001l.002-.001.011-.008.043-.03.163-.117a174.11 174.11 0 012.402-1.67 58.159 58.159 0 011.909-1.256c.275-.17.514-.312.7-.41.092-.048.169-.085.228-.11a.673.673 0 01.071-.024l.01-.003.01-.002h.149zM0 5.857h4.378l2.3 12.006 3.19-12.006h3.265l3.265 12.006 2.225-12.006h4.526l-4.303 18.448h-4.155l-3.116-11.347h-.149L8.384 24.305h-4.08L0 5.857zm35.02 18.448h4.601L33.463 5.857h-4.526l-6.084 18.448h4.451l1.188-3.66h5.49l1.039 3.66zm-3.709-12.592h-.148l-1.781 5.71h3.561l-1.632-5.71zm16.027 12.592h-4.156v-6.442L36.95 5.857h4.6l3.71 8.053h.148l3.71-8.053h4.6l-6.38 12.006v6.442zM64.106 8.488l.297.004.297.005v.027l-.002.076-.001.069-.004.224a805.95 805.95 0 00-.049 4.241 222.12 222.12 0 00-.007 3.232c.004.447.01.822.02 1.09a6.418 6.418 0 00.02.341l.002.02.002.003.012.055-.29.061.29-.061v.002l.002.007.006.025.018.086.047.214c.115.433.392 1.208.999 1.872.602.659 1.539 1.223 3.016 1.223 1.476 0 2.4-.564 2.986-1.22.595-.666.856-1.445.961-1.875l.026-.097.002-.012.035-.212.003-.037a16.945 16.945 0 00.014-.452 87.2 87.2 0 00.01-1.125c.004-.905.002-2.07-.003-3.223a1102.098 1102.098 0 00-.025-4.169l-.002-.286v-.101l.296-.003c.13 0 .204-.001.245-.002h.052v.101l.001.132.002.155a1203.849 1203.849 0 01.025 4.17c.004 1.154.006 2.321.003 3.228a95.09 95.09 0 01-.01 1.133c-.003.145-.006.267-.01.36a2.009 2.009 0 01-.015.215l-.034.207-.004.02-.001.01-.001.005-.002.011-.001.01a.402.402 0 01-.004.015l-.002.008-.003.009a.276.276 0 01-.009.024l-.001.004-.01.039c-.116.477-.408 1.359-1.093 2.125-.694.777-1.777 1.418-3.431 1.418-1.655 0-2.75-.641-3.457-1.415-.699-.765-1.008-1.645-1.134-2.123a4.347 4.347 0 01-.075-.338l-.005-.016a1.57 1.57 0 01-.027-.178 6.928 6.928 0 01-.02-.341c-.01-.278-.016-.66-.02-1.108-.007-.898-.002-2.073.007-3.24a621.416 621.416 0 01.055-4.539v-.077l.001-.02v-.006zm8.748 9.931a.294.294 0 01-.025-.022l-.002-.002c.004.004.013.014.026.024zm.41-.42a.101.101 0 00-.006-.006l.006.006zm3.9-9.58h-.296V21.67h.594v-5.637h3.818c.538 0 1.097-.056 1.63-.244.632-.223 1.13-.498 1.524-.898.394-.4.666-.905.88-1.557.12-.37.16-.752.16-1.121 0-.35-.035-.714-.146-1.068-.21-.671-.487-1.192-.913-1.606-.424-.412-.974-.696-1.69-.934a3.976 3.976 0 00-1.257-.186h-4.303zm4.116 7.028h-3.82V9.005h4.007c.371 0 .732.044 1.067.155.672.223 1.129.471 1.464.797.334.324.57.747.762 1.36.088.281.12.583.12.896 0 .329-.036.646-.132.94-.197.6-.43 1.015-.74 1.33-.311.315-.72.55-1.3.754-.444.158-.93.21-1.43.21z" fill="#000"/></svg>